<?xml version="1.0" encoding="utf-8"?>
<!-- Generator: Adobe Illustrator 16.0.0, SVG Export Plug-In . SVG Version: 6.00 Build 0)  -->
<!DOCTYPE svg PUBLIC "-//W3C//DTD SVG 1.1//EN" "http://www.w3.org/Graphics/SVG/1.1/DTD/svg11.dtd">
<svg version="1.1" xmlns="http://www.w3.org/2000/svg" xmlns:xlink="http://www.w3.org/1999/xlink" x="0px" y="0px" width="243px"
	 height="59px" viewBox="0 0 243 59" enable-background="new 0 0 243 59" xml:space="preserve">
<g id="Layer_2" display="none">
	<rect x="15.5" y="10.5" display="inline" fill="#1F30FF" width="212" height="38"/>
</g>
<g id="Layer_1">
	<g id="FIA-LOGO" display="none">
		<g id="Logo-Type" display="inline">
			<text transform="matrix(1 0 0 1 21.0737 307.1211)" fill="#2E3192" font-family="'GillSansMTPro-Light'" font-size="40">Fédération Internationale</text>
			<text transform="matrix(1 0 0 1 21.0737 343.1211)" fill="#2E3192" font-family="'GillSansMTPro-Light'" font-size="40">de l’Automobile</text>
		</g>
		<g id="Logo-Symbol" display="inline">
			<g>
				<path fill="#2E3192" d="M-114.576,250.924c0.012,0,0.023,0,0.035,0h2.014v0.032c10.486,0.328,20.343,3.169,28.964,7.921
					c3.223-1.874,6.627-3.465,10.182-4.736l2.818,4.273l2.742-0.827l0.541-5.278c3.189-0.779,6.473-1.313,9.83-1.572l1.578,5.089
					l2.865-0.03l2.109-5.217c3.201,0.091,6.34,0.427,9.402,0.99l0.309,5.605l2.785,0.667l3.428-4.698
					c3.232,0.973,6.354,2.201,9.342,3.666l-1.209,5.078l2.48,1.432l4.395-3.353c2.742,1.722,5.342,3.653,7.773,5.771l-2.82,4.584
					l1.906,2.137l5.771-2.002c2.234,2.42,4.279,5.018,6.109,7.77l-3.439,3.307l1.313,2.547l5.348-0.432
					c1.525,2.893,2.828,5.92,3.883,9.06l-4.404,2.692l0.732,2.77l5.396,0.74c0.717,3.22,1.184,6.531,1.373,9.917l-5.271,1.658
					l0.043,2.862l5.248,2.099c-0.18,3.524-0.656,6.973-1.406,10.317l-5.229,0.131l-0.75,2.765l4.244,3.297
					c-1.051,3.108-2.344,6.11-3.855,8.979l-4.676-1.141l-1.445,2.471l2.986,3.959c-1.666,2.519-3.51,4.906-5.516,7.148l-4.479-2.334
					l-1.994,2.053l2.039,4.762c-2.498,2.281-5.182,4.363-8.029,6.216l-3.518-3.3l-2.475,1.441l0.66,4.961
					c-3.051,1.578-6.25,2.912-9.568,3.969l-2.576-4.521l-2.789,0.646l-0.932,5.515c-3.094,0.635-6.268,1.037-9.508,1.186
					l-1.467-5.104l-2.861-0.029l-2.188,5.094c-3.367-0.199-6.664-0.672-9.867-1.395l-0.135-5.857l-2.762-0.754l-3.691,4.734
					c-3.236-1.121-6.35-2.507-9.318-4.127c-9.511,5.571-20.618,8.78-32.468,8.78c-34.983,0-63.516-27.938-63.516-62.188
					c0-33.583,27.426-61.09,61.467-62.155v-0.036h2.038C-114.584,250.924-114.58,250.924-114.576,250.924L-114.576,250.924z
					 M-119.215,371.512c0.527-0.379,1.048-0.768,1.565-1.16c-8.521-7.329-15.426-16.489-20.096-26.858
					c-6.82,2.822-13,6.848-18.262,11.805C-146.29,364.452-133.437,370.436-119.215,371.512L-119.215,371.512z M-158.587,352.715
					c5.597-5.276,12.173-9.563,19.432-12.563c-3.145-7.974-4.991-16.591-5.276-25.591h-29.948
					C-174.013,329.239-168.084,342.608-158.587,352.715L-158.587,352.715z M-174.334,310.462h29.882
					c0.194-9.187,2.014-17.983,5.184-26.116c-6.847-2.847-13.086-6.838-18.464-11.726
					C-167.46,282.557-173.663,295.825-174.334,310.462L-174.334,310.462z M-155.094,270.088c5.025,4.541,10.844,8.253,17.223,10.91
					c4.5-10.104,11.119-19.066,19.286-26.323C-132.613,255.591-145.345,261.277-155.094,270.088L-155.094,270.088z
					 M-111.024,254.646c8.222,7.297,14.876,16.324,19.383,26.5c6.52-2.666,12.463-6.433,17.582-11.059
					C-83.914,261.184-96.814,255.468-111.024,254.646L-111.024,254.646z M-71.42,272.621c-5.473,4.975-11.839,9.021-18.832,11.876
					c3.133,8.091,4.932,16.836,5.125,25.966h30.308C-55.489,295.825-61.69,282.555-71.42,272.621L-71.42,272.621z M-54.772,314.561
					h-30.376c-0.283,8.943-2.108,17.511-5.215,25.441c7.403,3.006,14.107,7.348,19.798,12.713
					C-61.069,342.606-55.139,329.239-54.772,314.561L-54.772,314.561z M-73.145,355.297c-5.354-5.043-11.66-9.123-18.623-11.953
					c-4.67,10.433-11.6,19.646-20.162,27.011c0.528,0.401,1.061,0.797,1.599,1.186C-95.953,370.543-82.951,364.538-73.145,355.297
					L-73.145,355.297z M-140.848,310.462h24.223v-21.245c-6.739-0.211-13.218-1.458-19.277-3.584
					C-138.917,293.366-140.654,301.73-140.848,310.462L-140.848,310.462z M-112.527,310.462h23.796
					c-0.193-8.685-1.91-17.002-4.894-24.698c-5.951,2.047-12.302,3.248-18.902,3.453V310.462L-112.527,310.462z M-88.754,314.561
					h-23.773v20.765c6.558,0.205,12.869,1.391,18.787,3.414C-90.78,331.202-89.037,323.061-88.754,314.561L-88.754,314.561z
					 M-116.625,314.561h-24.2c0.284,8.55,2.045,16.734,5.037,24.31c6.026-2.103,12.466-3.336,19.163-3.545V314.561L-116.625,314.561
					z M-95.152,342.086c-5.479-1.852-11.315-2.943-17.375-3.145v27.123C-105.225,359.372-99.277,351.223-95.152,342.086
					L-95.152,342.086z M-116.625,338.942c-6.197,0.207-12.159,1.342-17.745,3.271c4.203,9.262,10.282,17.506,17.745,24.24V338.942
					L-116.625,338.942z M-134.499,282.286c5.624,1.955,11.63,3.106,17.874,3.313v-27.845
					C-124.166,264.561-130.292,272.906-134.499,282.286L-134.499,282.286z M-112.527,285.6c6.107-0.203,11.987-1.31,17.505-3.188
					c-4.13-9.255-10.125-17.506-17.505-24.271V285.6L-112.527,285.6z M-52.989,266.352c25.092,0,45.557,20.465,45.557,45.558
					c0,25.094-20.465,45.559-45.557,45.559c-5.148,0-10.102-0.865-14.725-2.453c-3.1,3.32-6.559,6.312-10.318,8.914l0.129,1.154
					l4.701,1.904l3.602-4.043c1.922,0.646,3.893,1.186,5.904,1.61l0.148,5.783l5.779,0.838l2.434-5.537
					c0.885,0.043,1.775,0.066,2.67,0.066c1.055,0,2.1-0.033,3.139-0.096l1.609,5.448l5.799-0.686l0.908-5.912
					c2-0.439,3.955-0.994,5.863-1.652l2.547,4.181l5.428-2.154l-0.564-5.227c1.791-0.943,3.523-1.984,5.189-3.117l3.398,3.399
					l4.768-3.373l-1.824-5.071c1.363-1.265,2.66-2.599,3.887-3.996l4.076,2.471l3.826-4.412l-3.021-4.549
					c0.926-1.445,1.781-2.938,2.566-4.473l4.996,1.078l2.178-5.418l-4.057-3.099c0.631-1.897,1.158-3.844,1.574-5.83l5.203-0.184
					l0.779-5.789l-4.93-2.107c0.051-0.942,0.076-1.893,0.076-2.847c0-1.178-0.043-2.346-0.119-3.504l5.064-1.771l-0.969-5.759
					l-5.248-0.545c-0.457-2.056-1.037-4.067-1.725-6.026l4.5-2.701l-2.115-5.442l-5.721,0.578c-0.924-1.722-1.943-3.386-3.043-4.987
					l3.547-3.896l-3.592-4.604l-5.104,2.113c-1.414-1.505-2.916-2.929-4.494-4.261l2.586-4.479l-4.49-3.732l-4.832,3.356
					c-1.582-0.963-3.219-1.847-4.902-2.646l1.17-5.053l-5.387-2.258l-3.447,4.379c-1.889-0.559-3.822-1.016-5.789-1.363
					l-0.318-5.283l-5.805-0.639l-2.043,5.121c-0.379-0.01-0.758-0.014-1.139-0.014c-1.59,0-3.162,0.074-4.717,0.212l-1.746-5.003
					l-5.76,0.967l-0.561,5.379c-2.043,0.506-4.039,1.131-5.984,1.864l-3.133-4.29l-5.229,2.6l0.113,0.595
					c3.701,2.396,7.131,5.157,10.236,8.233C-64.336,267.445-58.786,266.352-52.989,266.352L-52.989,266.352z M-64.954,351.854
					c3.793,1.143,7.809,1.756,11.965,1.756c22.969,0,41.701-18.732,41.701-41.701c0-22.968-18.732-41.7-41.701-41.7
					c-4.748,0-9.314,0.803-13.572,2.275c9.648,10.91,15.5,25.121,15.5,40.632C-51.061,327.743-56.266,341.215-64.954,351.854
					L-64.954,351.854z"/>
				<path fill="#2E3192" d="M-160.736,278.886h41.942v17.354h-21.212v10.124h19.284v16.392h-19.284v23.381h-20.73V278.886
					L-160.736,278.886z M-8.188,346.137h-22.9l-2.566-8.678h-18.008l-2.291,8.678h-22.898l20.109-67.975h28.443L-8.188,346.137
					L-8.188,346.137z M-38.004,322.756l-5.168-17.466l-4.609,17.466H-38.004L-38.004,322.756z M-104.332,302.991h20.248v43.629
					h-20.248V302.991L-104.332,302.991z M-94.208,274.789c6.903,0,12.533,5.63,12.533,12.534c0,6.903-5.63,12.534-12.533,12.534
					c-6.904,0-12.535-5.631-12.535-12.534C-106.742,280.418-101.111,274.789-94.208,274.789L-94.208,274.789z"/>
			</g>
		</g>
	</g>
	<g id="FIA-LOGO_copy">
		<g id="Logo-Type_copy">
			
				<text transform="matrix(1 0 0 1 76.2603 27.7339)" fill="#FFFFFF" font-family="'GillSansMTPro-Light'" font-size="12.1898" letter-spacing="1">Fédération Internationale</text>
			
				<text transform="matrix(1 0 0 1 76.2603 38.7041)" fill="#FFFFFF" font-family="'GillSansMTPro-Light'" font-size="12.1898" letter-spacing="1">de l’Automobile</text>
		</g>
		<g id="Logo-Symbol_copy">
			<g>
				<path fill="#FFFFFF" d="M34.936,10.614c0.004,0,0.007,0,0.011,0h0.613v0.01c3.195,0.1,6.198,0.965,8.825,2.414
					c0.981-0.571,2.018-1.056,3.102-1.444l0.858,1.301l0.837-0.253l0.165-1.608c0.972-0.238,1.972-0.399,2.995-0.479l0.481,1.55
					l0.872-0.009l0.643-1.589c0.975,0.028,1.932,0.13,2.865,0.301l0.094,1.708l0.849,0.204l1.044-1.431
					c0.985,0.297,1.938,0.672,2.847,1.118l-0.369,1.546l0.755,0.436l1.338-1.021c0.836,0.525,1.627,1.112,2.367,1.759l-0.858,1.396
					l0.581,0.65l1.758-0.609c0.681,0.736,1.303,1.527,1.86,2.366l-1.047,1.007l0.4,0.776l1.629-0.132
					c0.465,0.882,0.861,1.804,1.183,2.76l-1.342,0.82l0.224,0.844l1.643,0.226c0.218,0.98,0.361,1.99,0.418,3.021l-1.606,0.505
					l0.013,0.872l1.599,0.641c-0.055,1.073-0.201,2.123-0.429,3.143l-1.592,0.04l-0.229,0.842l1.293,1.004
					c-0.319,0.948-0.715,1.862-1.173,2.735l-1.425-0.346l-0.44,0.753l0.91,1.204c-0.507,0.769-1.069,1.495-1.681,2.18l-1.365-0.713
					l-0.607,0.626l0.62,1.451c-0.76,0.694-1.579,1.329-2.446,1.893l-1.071-1.006l-0.755,0.438l0.201,1.514
					c-0.929,0.479-1.904,0.887-2.915,1.208l-0.785-1.378l-0.851,0.198l-0.283,1.679c-0.943,0.194-1.91,0.316-2.897,0.362
					l-0.446-1.557l-0.872-0.009l-0.667,1.554c-1.025-0.063-2.029-0.207-3.006-0.426l-0.041-1.784l-0.841-0.231l-1.125,1.443
					c-0.986-0.342-1.934-0.763-2.839-1.257c-2.897,1.698-6.282,2.674-9.892,2.674c-10.658,0-19.351-8.509-19.351-18.945
					c0-10.231,8.355-18.612,18.726-18.937v-0.01h0.621C34.933,10.614,34.934,10.614,34.936,10.614L34.936,10.614z M33.523,47.352
					C33.684,47.235,33.842,47.117,34,47c-2.596-2.234-4.701-5.026-6.122-8.185c-2.078,0.859-3.96,2.086-5.564,3.596
					C25.275,45.2,29.191,47.023,33.523,47.352L33.523,47.352z M21.528,41.625c1.706-1.607,3.709-2.914,5.92-3.828
					c-0.958-2.429-1.521-5.055-1.609-7.795h-9.124C16.828,34.473,18.635,38.546,21.528,41.625L21.528,41.625z M16.73,28.752h9.104
					c0.06-2.798,0.614-5.479,1.58-7.956c-2.086-0.867-3.987-2.083-5.625-3.572C18.825,20.251,16.935,24.292,16.73,28.752
					L16.73,28.752z M22.592,16.452c1.53,1.383,3.303,2.516,5.248,3.324c1.37-3.077,3.387-5.809,5.875-8.019
					C29.441,12.035,25.562,13.768,22.592,16.452L22.592,16.452z M36.019,11.748c2.505,2.222,4.533,4.973,5.906,8.073
					c1.984-0.813,3.796-1.959,5.356-3.369C44.277,13.739,40.349,11.998,36.019,11.748L36.019,11.748z M48.084,17.224
					c-1.667,1.515-3.608,2.748-5.736,3.617c0.954,2.465,1.502,5.13,1.56,7.912h9.235C52.938,24.292,51.049,20.25,48.084,17.224
					L48.084,17.224z M53.156,30.002h-9.255c-0.085,2.723-0.642,5.333-1.589,7.751c2.256,0.915,4.297,2.238,6.032,3.872
					C51.237,38.545,53.045,34.473,53.156,30.002L53.156,30.002z M47.558,42.411c-1.631-1.536-3.552-2.779-5.673-3.641
					c-1.422,3.178-3.534,5.985-6.142,8.229c0.161,0.121,0.323,0.241,0.487,0.36C40.611,47.056,44.57,45.227,47.558,42.411
					L47.558,42.411z M26.932,28.752h7.379V22.28c-2.053-0.065-4.026-0.445-5.873-1.093C27.521,23.543,26.992,26.092,26.932,28.752
					L26.932,28.752z M35.56,28.752h7.25c-0.059-2.646-0.582-5.179-1.492-7.525c-1.813,0.624-3.748,0.989-5.759,1.053L35.56,28.752
					L35.56,28.752z M42.802,30.002h-7.243v6.324c2,0.063,3.921,0.424,5.725,1.041C42.186,35.071,42.717,32.59,42.802,30.002
					L42.802,30.002z M34.312,30.002h-7.373c0.086,2.603,0.624,5.098,1.534,7.404c1.836-0.64,3.798-1.017,5.838-1.08L34.312,30.002
					L34.312,30.002z M40.854,38.387c-1.669-0.563-3.448-0.898-5.294-0.959v8.265C37.785,43.652,39.597,41.17,40.854,38.387
					L40.854,38.387z M34.312,37.428c-1.887,0.063-3.704,0.411-5.407,0.998c1.281,2.821,3.132,5.332,5.407,7.385V37.428
					L34.312,37.428z M28.866,20.167c1.714,0.595,3.543,0.947,5.446,1.01v-8.483C32.015,14.767,30.148,17.311,28.866,20.167
					L28.866,20.167z M35.56,21.178c1.861-0.062,3.653-0.399,5.334-0.972c-1.258-2.82-3.084-5.333-5.334-7.394V21.178L35.56,21.178z
					 M53.699,15.313c7.645,0,13.88,6.235,13.88,13.879c0,7.645-6.235,13.88-13.88,13.88c-1.567,0-3.077-0.263-4.485-0.748
					c-0.945,1.013-1.999,1.924-3.144,2.715l0.04,0.354l1.432,0.58l1.097-1.232c0.586,0.198,1.186,0.36,1.798,0.49l0.046,1.763
					l1.76,0.255l0.742-1.688c0.27,0.015,0.541,0.021,0.813,0.021c0.323,0,0.64-0.011,0.957-0.03l0.491,1.659l1.766-0.207
					l0.277-1.802c0.608-0.135,1.205-0.303,1.786-0.503l0.775,1.273l1.654-0.657l-0.172-1.592c0.545-0.288,1.073-0.605,1.58-0.949
					l1.036,1.036l1.453-1.027l-0.556-1.547c0.415-0.385,0.812-0.79,1.185-1.216l1.241,0.752l1.166-1.344l-0.92-1.388
					c0.282-0.438,0.544-0.893,0.783-1.361l1.522,0.329l0.663-1.652l-1.237-0.942c0.193-0.581,0.354-1.173,0.479-1.777l1.586-0.057
					l0.237-1.761l-1.501-0.643c0.016-0.289,0.023-0.578,0.023-0.868c0-0.359-0.014-0.715-0.036-1.068l1.543-0.539l-0.296-1.755
					l-1.599-0.166c-0.139-0.627-0.315-1.239-0.525-1.836l1.37-0.823l-0.643-1.659l-1.744,0.176c-0.282-0.525-0.593-1.031-0.927-1.52
					l1.081-1.187l-1.095-1.403l-1.555,0.644c-0.431-0.458-0.887-0.892-1.369-1.298l0.787-1.364l-1.368-1.139l-1.471,1.023
					c-0.481-0.294-0.981-0.562-1.494-0.806l0.356-1.539l-1.641-0.689l-1.05,1.337c-0.576-0.17-1.165-0.309-1.765-0.416l-0.097-1.609
					l-1.768-0.194l-0.623,1.56c-0.115-0.003-0.231-0.004-0.348-0.004c-0.484,0-0.962,0.022-1.437,0.065l-0.531-1.525l-1.754,0.294
					l-0.172,1.638c-0.621,0.155-1.229,0.345-1.822,0.568l-0.954-1.306l-1.593,0.791l0.035,0.181c1.127,0.73,2.172,1.572,3.12,2.509
					C50.242,15.646,51.934,15.313,53.699,15.313L53.699,15.313z M50.055,41.362c1.156,0.349,2.379,0.534,3.645,0.534
					c6.997,0,12.705-5.706,12.705-12.705c0-6.998-5.707-12.705-12.705-12.705c-1.446,0-2.838,0.244-4.135,0.693
					c2.94,3.324,4.723,7.653,4.723,12.379C54.287,34.017,52.7,38.12,50.055,41.362L50.055,41.362z"/>
				<path fill="#FFFFFF" d="M20.874,19.132h12.778v5.287h-6.463v3.084h5.875v4.994h-5.875v7.123h-6.314V19.132L20.874,19.132z
					 M67.348,39.621h-6.975l-0.784-2.645h-5.486l-0.698,2.645h-6.976l6.126-20.709h8.665L67.348,39.621L67.348,39.621z
					 M58.264,32.497l-1.574-5.32l-1.404,5.32H58.264L58.264,32.497z M38.057,26.476h6.169v13.292h-6.169V26.476L38.057,26.476z
					 M41.142,17.884c2.104,0,3.818,1.715,3.818,3.818c0,2.104-1.716,3.818-3.818,3.818c-2.103,0-3.819-1.716-3.819-3.818
					C37.323,19.599,39.039,17.884,41.142,17.884L41.142,17.884z"/>
			</g>
		</g>
	</g>
</g>
</svg>
